<svg xmlns="http://www.w3.org/2000/svg" viewBox="0 0 100 100">
  <!-- Ball outline -->
  <circle cx="50" cy="50" r="44" fill="none" stroke="#000" stroke-width="6"/>
  <!-- Central pentagon (vertex up) -->
  <polygon points="50,39 40,47 44,59 57,59 61,47" fill="#000"/>
  <!-- Top-right pentagon -->
  <polygon points="70,22 60,22 56,32 65,38 74,32" fill="#000"/>
  <!-- Top-left pentagon -->
  <polygon points="30,22 26,32 35,38 44,32 40,22" fill="#000"/>
  <!-- Lower-left pentagon -->
  <polygon points="16,61 25,67 34,61 30,51 20,51" fill="#000"/>
  <!-- Bottom pentagon -->
  <polygon points="50,85 59,79 55,69 45,69 41,79" fill="#000"/>
  <!-- Lower-right pentagon -->
  <polygon points="84,61 80,51 70,51 66,61 75,67" fill="#000"/>
</svg>
