<svg xmlns="http://www.w3.org/2000/svg" viewBox="0 0 100 100">
  <circle cx="50" cy="50" r="42" fill="none" stroke="#000" stroke-width="7"/>
  <!-- Central pentagon -->
  <polygon points="50,28 63,38 58,53 42,53 37,38" fill="#000"/>
  <!-- Surrounding patches (outlines only) -->
  <polygon points="50,8 65,18 63,38 50,28 37,38 35,18" fill="none" stroke="#000" stroke-width="4"/>
  <polygon points="78,32 88,48 75,60 63,53 63,38 78,32" fill="none" stroke="#000" stroke-width="4"/>
  <polygon points="72,72 58,80 42,80 28,72 37,60 42,53 58,53 63,60 72,72" fill="none" stroke="#000" stroke-width="4"/>
  <polygon points="22,32 37,38 37,53 25,60 12,48 22,32" fill="none" stroke="#000" stroke-width="4"/>
</svg>
